<svg viewBox="0 0 18 18" version="1.1" xmlns="http://www.w3.org/2000/svg" xmlns:xlink="http://www.w3.org/1999/xlink">
    <path className="close-icon" fill="currentColor" transform="translate(-282.000000, -17.000000)" d="M290.702888,23.9351213 L297.271893,17.3661165 C297.760048,16.8779612 298.551505,16.8779612 299.03966,17.3661165 C299.527815,17.8542719 299.527815,18.6457281 299.03966,19.1338835 L292.470655,25.7028883 L299.03966,32.271893 C299.527815,32.7600484 299.527815,33.5515046 299.03966,34.03966 C298.551505,34.5278153 297.760048,34.5278153 297.271893,34.03966 L290.702888,27.4706552 L284.133883,34.03966 C283.645728,34.5278153 282.854272,34.5278153 282.366117,34.03966 C281.877961,33.5515046 281.877961,32.7600484 282.366117,32.271893 L288.935121,25.7028883 L282.366117,19.1338835 C281.877961,18.6457281 281.877961,17.8542719 282.366117,17.3661165 C282.854272,16.8779612 283.645728,16.8779612 284.133883,17.3661165 L290.702888,23.9351213 Z" id="Combined-Shape">
    </path>
</svg>
