<svg xmlns="http://www.w3.org/2000/svg" fill="none" viewBox="0 0 36 36">
  <path fill="url(#paint0_linear)" d="M33.6522 7.01198h-2.6205c.3457-.54703.5738-1.16107.6388-1.81047.2078-2.07542-.8852-3.93589-2.746-4.760723-1.7105-.758179-3.6326-.44824193-5.0167.807113l-3.3089 2.99883C19.9545 3.54192 19.0281 3.09895 18 3.09895c-1.0299 0-1.9578.44438-2.6023 1.15137l-3.3132-3.00277C10.6982-.00780639 8.77683-.316549 7.06718.441209 5.20685 1.26612 4.11363 3.12722 4.32204 5.20256c.06518.64891.29313 1.26267.63872 1.80942H2.3478C1.0511 7.01198 0 8.06315 0 9.35979v3.52171c0 .6483.525586 1.174 1.17394 1.174H34.8261c.6483 0 1.174-.5256 1.174-1.174V9.35979C36 8.06315 34.9489 7.01198 33.6522 7.01198zm-19.1739-.39129v.39129H8.9557c-1.45912 0-2.60747-1.36026-2.24304-2.87944.16053-.66902.64343-1.23932 1.26802-1.52803.85767-.39642 1.80773-.26915 2.52812.38286l3.9704 3.59873c-.0002.0116-.0009.02299-.0009.03459zM29.341 4.88981c-.0875 1.22013-1.1896 2.12231-2.4129 2.12231h-5.4064v-.39129c0-.01385-.0008-.02756-.0009-.04141.8994-.81534 2.8506-2.58384 3.9089-3.54312.6015-.54513 1.443-.79959 2.221-.56756 1.1163.333 1.7719 1.28236 1.6903 2.42107z"/>
  <path fill="url(#paint1_linear)" d="M2.34764 16.4032v17.2175c0 1.2967 1.0511 2.3478 2.34781 2.3478H15.652V16.4032H2.34764z"/>
  <path fill="url(#paint2_linear)" d="M20.3476 16.4032v19.5653h10.9565c1.2967 0 2.3479-1.0511 2.3479-2.3478V16.4032H20.3476z"/>
  <defs>
    <linearGradient id="paint0_linear" x1="18" x2="18" y1=".0314941" y2="35.9685" gradientUnits="userSpaceOnUse">
      <stop stop-color="#FFEB3B"/>
      <stop offset="1" stop-color="#FF9800"/>
    </linearGradient>
    <linearGradient id="paint1_linear" x1="18" x2="18" y1=".0314941" y2="35.9685" gradientUnits="userSpaceOnUse">
      <stop stop-color="#FFEB3B"/>
      <stop offset="1" stop-color="#FF9800"/>
    </linearGradient>
    <linearGradient id="paint2_linear" x1="18" x2="18" y1=".0314941" y2="35.9685" gradientUnits="userSpaceOnUse">
      <stop stop-color="#FFEB3B"/>
      <stop offset="1" stop-color="#FF9800"/>
    </linearGradient>
  </defs>
</svg>