<svg xmlns="http://www.w3.org/2000/svg" viewBox="0 0 18 19">
    <path fill="#a3a3b2" fill-rule="evenodd" d="M13.518 1.454a8.888 8.888 0 0 1 3.278 3.278A8.841 8.841 0 0 1 18 9.25a8.841 8.841 0 0 1-1.204 4.518 8.888 8.888 0 0 1-3.278 3.278A8.841 8.841 0 0 1 9 18.25a8.841 8.841 0 0 1-4.518-1.204 8.888 8.888 0 0 1-3.278-3.278A8.841 8.841 0 0 1 0 9.25c0-1.629.401-3.135 1.204-4.518a8.888 8.888 0 0 1 3.278-3.278A8.841 8.841 0 0 1 9 .25c1.629 0 3.135.401 4.518 1.204zM8.499 3.678a.63.63 0 0 0 0 .887.61.61 0 0 0 .448.185.61.61 0 0 0 .449-.185.63.63 0 0 0 0-.888.597.597 0 0 0-.449-.193.597.597 0 0 0-.448.194zm3.208 9.615a.61.61 0 0 0-.185-.448.61.61 0 0 0-.448-.185H9.58V6.508a.61.61 0 0 0-.184-.448.61.61 0 0 0-.449-.185H7.26a.61.61 0 0 0-.448.185.61.61 0 0 0-.185.448c0 .164.061.31.185.44a.597.597 0 0 0 .448.193h1.054v5.52H6.82a.61.61 0 0 0-.448.184.61.61 0 0 0-.184.448.61.61 0 0 0 .184.448.61.61 0 0 0 .448.185h4.254a.61.61 0 0 0 .448-.185.61.61 0 0 0 .185-.448z">
    </path>
</svg>
